<svg width="47" height="83" viewBox="0 0 47 83" fill="none" xmlns="http://www.w3.org/2000/svg">
<path d="M-0.000488281 41.7391C-0.000488281 30.2311 -0.000488281 18.723 -0.000488281 7.21497C-0.000488281 3.05786 2.53361 0.527832 6.69933 0.527832C17.9002 0.527832 29.1011 0.527832 40.3019 0.527832C44.4699 0.527832 46.9973 3.05339 46.9995 7.2172C46.9995 30.2623 46.9995 53.3075 46.9995 76.3504C46.9995 80.4538 44.4542 82.9951 40.3425 82.9951C29.1146 82.9951 17.8844 82.9951 6.65657 82.9951C2.55161 82.9951 0.00176225 80.4472 0.00176225 76.3459C0.00176225 64.8088 0.00176225 53.274 0.00176225 41.7369L-0.000488281 41.7391ZM45.0866 67.0326V12.2616H44.0243C34.7026 12.2616 25.3832 12.2616 16.0615 12.2616C15.7802 12.2616 15.4269 12.3577 15.2356 12.2281C14.8822 11.9867 14.4546 11.6492 14.3669 11.2782C14.2386 10.7262 14.6662 10.3529 15.2423 10.268C15.5169 10.2278 15.8027 10.2523 16.084 10.2523C25.4327 10.2523 34.7814 10.2523 44.1323 10.2523H45.1496C45.1496 9.15942 45.1496 8.18496 45.1496 7.2105C45.1496 4.22006 43.4639 2.54157 40.4617 2.54157C29.2046 2.54157 17.9452 2.54157 6.68808 2.54157C6.49228 2.54157 6.29424 2.5371 6.09844 2.54604C4.19449 2.61756 2.46834 3.88258 2.18927 5.74433C1.97097 7.20379 2.14651 8.71913 2.14651 10.2523C4.08197 10.2523 6.01517 10.2613 7.95062 10.2479C8.65504 10.2434 9.18616 10.4513 9.25368 11.229C9.30994 11.8772 8.80357 12.2527 7.92362 12.2616C7.05266 12.2683 6.18396 12.2616 5.31301 12.2616C4.2305 12.2616 3.148 12.2616 2.06775 12.2616V67.0349H45.0933L45.0866 67.0326ZM2.02048 69.1447C2.02048 71.5474 2.02048 73.8919 2.02048 76.2342C2.02048 79.3341 3.67912 80.9858 6.79385 80.9858C17.9925 80.9858 29.1911 80.9858 40.3897 80.9858C40.671 80.9858 40.9523 80.9925 41.2314 80.9746C43.2659 80.8338 45.0416 79.2179 45.1113 77.2265C45.2036 74.5535 45.1338 71.8737 45.1338 69.1447H2.02048Z" fill="#FD6F00"/>
<path d="M23.6098 15.6141C28.6622 15.6141 33.7146 15.6141 38.7671 15.6141C39.9688 15.6141 40.2592 15.9002 40.2592 17.087C40.2592 26.2773 40.2592 35.4655 40.2592 44.6558C40.2592 45.8336 39.9644 46.1197 38.7581 46.1197C28.6532 46.1197 18.5461 46.1197 8.44122 46.1197C7.18543 46.1197 6.90636 45.8448 6.90636 44.6044C6.90636 35.4431 6.90636 26.2818 6.90636 17.1205C6.90636 15.8846 7.18318 15.6141 8.45022 15.6141C13.5027 15.6141 18.5551 15.6141 23.6075 15.6141H23.6098ZM22.0907 30.868C17.6886 26.8741 13.3856 22.9673 8.99935 18.989V42.7516C13.4036 38.7531 17.7111 34.8441 22.0907 30.868ZM38.2134 18.9555C33.7822 22.9762 29.4589 26.8987 25.0839 30.868C29.4769 34.8531 33.7912 38.7688 38.2134 42.7806V18.9532V18.9555ZM10.5657 17.6636C15.0038 21.6889 19.2865 25.5733 23.5918 29.4801C27.9465 25.5264 32.218 21.6486 36.6043 17.6636H10.5657ZM23.5873 32.2537C19.2235 36.2164 14.9542 40.0919 10.5792 44.0658H36.6021C32.2023 40.0718 27.9263 36.1918 23.5873 32.2537Z" fill="black"/>
<path d="M23.4995 57.1852C18.5866 57.1852 13.6737 57.1852 8.76081 57.1852C8.48174 57.1852 8.12166 57.2702 7.93936 57.1316C7.61529 56.888 7.19669 56.5058 7.19669 56.1795C7.19669 55.8554 7.61754 55.471 7.93936 55.2274C8.12391 55.0888 8.48174 55.176 8.76306 55.176C18.6451 55.176 28.5272 55.176 38.4092 55.176C38.6343 55.176 38.8616 55.1603 39.0822 55.1872C39.6673 55.2564 40.0184 55.6051 40.0184 56.1817C40.0184 56.7561 39.665 57.107 39.0822 57.1763C38.8323 57.2054 38.578 57.1875 38.3237 57.1875C33.3816 57.1875 28.4417 57.1875 23.4995 57.1875V57.1852Z" fill="#FD6F00"/>
<path d="M23.531 62.214C18.6181 62.214 13.7052 62.214 8.79232 62.214C8.511 62.214 8.15767 62.3034 7.96862 62.1693C7.6378 61.9346 7.17644 61.5412 7.19894 61.2462C7.2237 60.8886 7.65805 60.5176 7.99113 60.2449C8.14417 60.1198 8.47949 60.2069 8.73155 60.2069C18.6429 60.2069 28.5519 60.2069 38.4633 60.2069C38.6883 60.2069 38.9809 60.1265 39.1227 60.236C39.4647 60.502 39.9103 60.8216 39.9914 61.1881C40.1106 61.729 39.6966 62.1179 39.1137 62.2006C38.8661 62.2363 38.6095 62.2162 38.3575 62.2162C33.4153 62.2162 28.4754 62.2162 23.5333 62.2162L23.531 62.214Z" fill="#FD6F00"/>
<path d="M15.8342 51.9889C13.3947 51.9889 10.9573 51.9911 8.51777 51.9889C7.62881 51.9889 7.14495 51.6335 7.1382 50.9966C7.12919 50.3551 7.61531 49.9819 8.49301 49.9819C13.3992 49.9774 18.3053 49.9796 23.2115 49.9819C24.1297 49.9819 24.5775 50.3149 24.5865 50.972C24.5955 51.6201 24.1207 51.9867 23.2362 51.9889C20.7696 51.9934 18.3031 51.9889 15.8342 51.9889Z" fill="#FD6F00"/>
<path d="M23.5873 78.2702C21.5348 78.2881 19.7614 76.5381 19.7546 74.4886C19.7501 72.4167 21.4425 70.7002 23.5333 70.6555C25.624 70.6131 27.4154 72.3787 27.4042 74.4752C27.3952 76.5403 25.6713 78.2523 23.585 78.268L23.5873 78.2702ZM25.3877 74.4729C25.3967 73.5253 24.5933 72.7006 23.6368 72.6715C22.6511 72.6425 21.7914 73.4672 21.7824 74.4528C21.7734 75.3938 22.579 76.2252 23.5333 76.2587C24.5032 76.2922 25.3809 75.4496 25.3899 74.4729H25.3877Z" fill="black"/>
</svg>
