<svg width="82" height="70" viewBox="0 0 82 70" fill="none" xmlns="http://www.w3.org/2000/svg">
<path d="M81.9996 6.82165V63.1784C81.9568 63.2802 81.8926 63.3753 81.8712 63.4816C81.0475 67.533 78.219 69.9728 74.3016 69.9977C72.8873 70.0068 71.4731 69.9977 70.0567 69.9977C49.3181 69.9977 28.5796 70 7.83889 69.9977C3.2667 69.9977 0.00817681 66.6661 0.00389773 61.9471C-0.00466043 43.9786 -0.00466043 26.0146 0.021014 8.05063C0.021014 7.13399 0.170782 6.18113 0.442503 5.31202C1.4866 1.97135 4.27442 0 7.84317 0C29.9425 0 52.0439 0 74.1432 0C74.3572 0 74.5711 0 74.783 0.00905329C77.7334 0.169749 79.8879 1.66354 81.2165 4.43611C81.5717 5.17848 81.7429 6.02044 81.9975 6.81712L81.9996 6.82165ZM14.6405 66.562C14.6405 63.1919 14.6405 59.9124 14.6405 56.6328C14.6405 54.0594 14.6234 51.4838 14.6469 48.9104C14.6704 46.3958 16.1617 44.8409 18.5152 44.8341C20.2504 44.8296 21.9855 44.8319 23.7186 44.8341C26.2881 44.8364 27.7238 46.3574 27.7259 49.0914C27.7302 54.58 27.7259 60.0663 27.7259 65.5548C27.7259 65.883 27.7259 66.2112 27.7259 66.5575H32.5206C32.5206 66.2067 32.5206 65.9034 32.5206 65.6001C32.5206 62.7144 32.5163 59.8286 32.5249 56.9452C32.5249 56.5242 32.5527 56.0964 32.6169 55.6822C32.8373 54.2496 33.6803 53.2673 34.8035 52.4955C33.4321 49.0009 32.082 45.5607 30.732 42.1227C29.4974 38.9789 29.9275 36.9125 32.2339 34.5632C35.1095 31.6344 37.816 28.5586 39.6004 24.7087C39.8806 24.1044 40.3599 23.7807 41.0146 23.7807C41.7014 23.7807 42.1571 24.1315 42.4866 24.754C43.0365 25.786 43.4986 26.9064 44.2068 27.8004C46.1409 30.2425 48.1371 32.6371 50.1996 34.9593C51.8963 36.8695 52.4205 39.1374 51.4919 41.5795C51.0148 42.8356 50.5141 44.085 50.0263 45.3366C49.0956 47.7335 48.1671 50.1303 47.2257 52.5498C48.9715 53.6498 49.5321 55.2929 49.4914 57.3164C49.4337 60.0867 49.4765 62.8592 49.4765 65.6318V66.5371H53.9631C53.9631 66.1614 53.9631 65.8536 53.9631 65.5435C53.9631 61.4695 53.9203 57.3956 53.9973 53.3239C54.0144 52.4774 54.2797 51.4634 54.7804 50.841C55.388 50.085 55.5185 49.3653 55.4907 48.4758C55.4372 46.6901 56.1754 45.3932 57.673 44.5535C57.887 44.4335 58.0945 44.0714 58.1052 43.8134C58.1523 42.684 58.1159 41.5523 58.1288 40.4207C58.1416 39.2981 58.7578 38.5783 59.6906 38.5602C60.6513 38.5421 61.3081 39.2845 61.3252 40.441C61.3424 41.5433 61.3509 42.6478 61.3188 43.75C61.306 44.2095 61.4365 44.4471 61.843 44.6418C62.8721 45.1352 63.576 45.9952 63.8114 47.1631C63.959 47.8987 63.8841 48.6818 63.9526 49.44C63.9783 49.7229 64.0532 50.0783 64.2329 50.2525C65.1721 51.1624 65.5059 52.2827 65.4995 53.5977C65.4781 57.6151 65.4931 61.6302 65.4931 65.6476C65.4931 65.9487 65.4931 66.2474 65.4931 66.6073C68.452 66.6073 71.3019 66.6118 74.1539 66.6073C77.0616 66.6028 78.7946 64.7763 78.7946 61.7117C78.7967 49.0394 78.7946 36.3671 78.7946 23.6924C78.7946 23.3937 78.7946 23.0972 78.7946 22.8007H3.20465C3.20465 23.1447 3.20465 23.448 3.20465 23.7513C3.20465 36.3671 3.20465 48.9828 3.20465 61.6008C3.20465 61.8837 3.19823 62.1667 3.21749 62.4496C3.35228 64.4956 4.89061 66.424 6.7841 66.5281C9.3601 66.6707 11.9468 66.5643 14.6405 66.5643V66.562ZM3.21535 19.2948H78.7839C78.7839 15.3272 78.7839 11.423 78.7817 7.52102C78.7817 7.38069 78.7539 7.24037 78.7283 7.1023C78.2961 4.76882 76.6101 3.39498 74.1497 3.39498C52.0482 3.39498 29.9489 3.39498 7.84745 3.39498C7.6335 3.39498 7.41954 3.39498 7.20773 3.4063C5.1174 3.50815 3.28167 5.3007 3.23674 7.52328C3.15972 11.423 3.21535 15.3272 3.21535 19.2971V19.2948ZM39.3992 51.9478C39.3992 49.2069 39.3928 46.4954 39.4035 43.7862C39.4078 42.6206 40.0539 41.8986 41.0317 41.9167C41.9731 41.9326 42.5893 42.641 42.5979 43.7681C42.6107 45.8028 42.6021 47.8398 42.6021 49.8746C42.6021 50.5739 42.6021 51.2755 42.6021 52.0949C43.2012 51.8957 43.8345 52.4095 44.1747 51.52C45.6146 47.7538 47.0909 44.0012 48.5458 40.2419C48.9673 39.1532 48.7533 38.2026 47.9488 37.3901C47.2727 36.7065 46.5731 36.0457 45.9569 35.3056C44.2688 33.2776 42.6214 31.2135 40.9376 29.1403C40.929 29.1516 40.8327 29.2421 40.7621 29.353C38.8964 32.2704 36.6457 34.8303 34.2323 37.2407C33.1732 38.2977 33.0106 39.0876 33.5647 40.5021C34.9447 44.0216 36.3632 47.523 37.6876 51.0651C38.0299 51.9794 38.4814 52.2443 39.4014 51.9523L39.3992 51.9478ZM46.2779 66.5779V65.745C46.2779 62.8343 46.2779 59.926 46.2779 57.0153C46.2779 55.7501 46.004 55.4469 44.8315 55.4446C42.2726 55.4378 39.7138 55.4378 37.1549 55.4446C36.0145 55.4469 35.7257 55.7547 35.7235 56.9452C35.7192 59.9124 35.7214 62.8773 35.7235 65.8446C35.7235 66.0867 35.7535 66.3266 35.7706 66.5801H46.2757L46.2779 66.5779ZM24.523 66.5665C24.523 65.5684 24.523 64.6676 24.523 63.7646C24.523 58.9029 24.523 54.0391 24.523 49.1775C24.523 48.6773 24.5637 48.2065 23.8576 48.2155C22.0711 48.2404 20.2825 48.2042 18.4981 48.2495C18.2777 48.254 17.9097 48.5731 17.8798 48.7859C17.7963 49.4128 17.8498 50.0601 17.8498 50.755C18.6072 50.755 19.2448 50.7459 19.8824 50.755C20.9928 50.7731 21.7117 51.4272 21.7245 52.4163C21.7395 53.437 20.9971 54.1251 19.8481 54.1432C19.2127 54.1522 18.5772 54.1432 17.9118 54.1432V56.2368C18.6735 56.2368 19.3646 56.2119 20.0557 56.2435C21.0377 56.2865 21.7159 56.9927 21.7245 57.9297C21.7331 58.8962 21.0249 59.6 19.9979 59.6249C19.3132 59.6408 18.6264 59.6272 17.9097 59.6272V61.7593C18.6136 61.7593 19.2491 61.7479 19.8866 61.7615C21.0078 61.7864 21.7159 62.436 21.7266 63.4273C21.7395 64.4481 21.0056 65.1248 19.846 65.1474C19.2127 65.1588 18.5772 65.1474 17.9033 65.1474V66.5575H24.523V66.5665ZM62.2902 66.562C62.2902 62.1033 62.2859 57.7509 62.2966 53.3985C62.2966 52.878 62.042 52.801 61.6376 52.8033C60.4095 52.8169 59.1814 52.8463 57.9555 52.792C57.2944 52.7626 57.151 53.0228 57.1553 53.6724C57.1788 57.7441 57.166 61.8181 57.1703 65.8898C57.1703 66.1071 57.2024 66.3244 57.2216 66.562H62.2902ZM60.8246 49.3721C60.7112 48.7836 60.7647 47.9937 60.4737 47.8059C60.0822 47.5524 59.3034 47.5705 58.9204 47.8398C58.6401 48.0367 58.73 48.8244 58.6508 49.3721H60.8246Z" fill="#FD6F00"/>
<path d="M24.4288 6.76954C27.1053 6.76501 29.2791 9.05097 29.2855 11.8779C29.2919 14.6866 27.1032 17.0065 24.4416 17.0111C21.7822 17.0156 19.5891 14.7025 19.5848 11.8914C19.5806 9.06907 21.7522 6.77406 24.4288 6.76954ZM24.4523 10.169C23.5558 10.16 22.8156 10.9092 22.7942 11.8462C22.7706 12.8013 23.5473 13.6251 24.4587 13.6116C25.3381 13.598 26.0783 12.8058 26.0783 11.8801C26.0783 10.9454 25.3445 10.1758 24.4523 10.1668V10.169Z" fill="black"/>
<path d="M16.2065 11.9097C16.1958 14.7501 14.0413 17.018 11.3583 17.0089C8.68819 16.9999 6.54865 14.7026 6.55507 11.8576C6.56363 9.01714 8.72242 6.75381 11.4075 6.76739C14.0969 6.78097 16.2172 9.05109 16.2065 11.9097ZM9.7601 11.8644C9.75154 12.8286 10.4619 13.6004 11.3626 13.6117C12.2741 13.623 12.9887 12.8761 12.9994 11.9051C13.0101 10.9274 12.3211 10.1805 11.4011 10.1714C10.4811 10.1624 9.76866 10.8957 9.76224 11.8667L9.7601 11.8644Z" fill="black"/>
<path d="M37.4714 6.76736C40.1608 6.75831 42.3047 9.0171 42.3089 11.8666C42.3154 14.7139 40.1758 16.9998 37.4993 17.0066C34.8248 17.0134 32.6618 14.732 32.6575 11.8983C32.6532 9.04879 34.7842 6.77415 37.4714 6.76736ZM39.1018 11.9028C39.1103 10.9251 38.4214 10.1782 37.5014 10.1691C36.5814 10.1601 35.8711 10.8957 35.8625 11.8644C35.8561 12.8285 36.5643 13.6003 37.4672 13.6094C38.3786 13.6184 39.0932 12.8715 39.1018 11.9006V11.9028Z" fill="black"/>
<path d="M40.961 39.7167C40.1095 39.6918 39.397 38.9042 39.4056 37.9966C39.4142 37.0415 40.163 36.2991 41.0787 36.3421C41.9495 36.3828 42.6299 37.1592 42.5956 38.0781C42.5636 38.9789 41.804 39.7394 40.961 39.7145V39.7167Z" fill="#FD6F00"/>
</svg>
