<svg width="70" height="70" viewBox="0 0 70 70" fill="none" xmlns="http://www.w3.org/2000/svg">
<path d="M58.1055 0C58.8452 0.402865 59.0808 1.01901 59.0772 1.85938C59.0498 7.41927 59.0626 12.9773 59.0626 18.5372C59.0626 18.7195 59.0717 18.9036 59.0534 19.0841C58.984 19.8297 58.4233 20.3638 57.7091 20.3711C56.9676 20.3784 56.3721 19.8279 56.3374 19.0458C56.3064 18.3185 56.3265 17.5875 56.3265 16.8583C56.3265 14.649 56.3265 12.4396 56.3265 10.1737H13.7219V13.9362H14.5347C24.469 13.9362 34.4014 13.9362 44.3356 13.9362C45.8005 13.9362 46.2114 14.3427 46.2114 15.7938C46.2114 22.0372 46.2114 28.2789 46.2114 34.5224C46.2114 35.9315 45.7804 36.369 44.3849 36.369C34.4507 36.369 24.5183 36.369 14.584 36.369C14.3137 36.369 14.0416 36.369 13.7219 36.369V67.2255H56.2936V62.6427H55.4078C45.5192 62.6427 35.6324 62.6427 25.7438 62.6427C24.153 62.6427 23.7913 62.2745 23.7913 60.6594C23.7913 54.4396 23.7913 48.2198 23.7913 42C23.7913 40.6602 24.2498 40.2081 25.6087 40.2081C35.5429 40.2081 45.4753 40.2081 55.4096 40.2081H56.3301C56.3301 39.9401 56.3301 39.6995 56.3301 39.4607C56.3301 36.8174 56.3265 34.1742 56.332 31.5328C56.332 30.7161 56.6808 30.2021 57.3347 30.0089C58.237 29.7409 59.0553 30.4227 59.0607 31.4799C59.0717 34.1232 59.0644 36.7664 59.0644 39.4078C59.0644 39.6521 59.0644 39.8964 59.0644 40.2099C59.7603 40.2099 60.3922 40.2099 61.0242 40.2099C63.3932 40.2099 65.7639 40.2354 68.1329 40.1953C68.9676 40.1807 69.5886 40.4286 70.0032 41.156V61.6638C69.6342 62.4367 69.0132 62.6682 68.1767 62.6591C65.4059 62.6245 62.6352 62.6464 59.8644 62.6464C59.6215 62.6464 59.3785 62.6464 59.0644 62.6464C59.0644 64.5313 59.0315 66.3432 59.079 68.1516C59.1009 68.9919 58.8416 69.6008 58.1073 70.0036H11.8936C11.1539 69.6008 10.9201 68.9865 10.9219 68.1461C10.9438 57.8284 10.9365 47.5107 10.9365 37.193V36.3708C7.78767 36.3708 4.73744 36.3727 1.68904 36.3708C0.479909 36.3708 0.00136986 35.8841 0.00136986 34.6628C-0.000456621 28.3081 -0.000456621 21.9534 0.00136986 15.5987C0.00136986 14.4247 0.485388 13.9435 1.66347 13.9417C4.21507 13.938 6.76484 13.9417 9.31644 13.9417C9.83516 13.9417 10.3521 13.9417 10.9365 13.9417V13.1396C10.9365 9.38073 10.9566 5.6237 10.9219 1.86484C10.9146 1.02448 11.1521 0.408333 11.8936 0.00729167H58.1055V0ZM2.76484 33.5854H43.4242V16.707H2.76484V33.5854ZM26.5548 59.8573H67.2105V42.9789H26.5548V59.8573ZM45.4936 2.77266H13.7183V7.33359H45.4936V2.77266ZM56.2991 2.78359H48.3174V7.34818H56.2991V2.78359Z" fill="#FD6F00"/>
<path d="M59.0571 25.1143C59.0753 25.8635 58.4434 26.5125 57.6945 26.5125C56.9731 26.5125 56.3521 25.9036 56.3338 25.1799C56.3155 24.4526 56.8982 23.8255 57.6288 23.7909C58.3868 23.7544 59.0388 24.3578 59.0571 25.1143Z" fill="#FD6F00"/>
<path d="M12.71 20.4988C14.2351 20.4988 15.7584 20.4933 17.2835 20.5006C18.3612 20.5061 18.8616 21.011 18.8653 22.0975C18.8726 24.1227 18.8726 26.1462 18.8653 28.1714C18.8616 29.2834 18.352 29.7902 17.2233 29.792C14.2205 29.7975 11.2178 29.7975 8.21322 29.792C7.08262 29.7902 6.56755 29.2852 6.5639 28.1787C6.5566 26.1535 6.55842 24.13 6.5639 22.1048C6.56755 20.9891 7.06618 20.5024 8.20591 20.4988C9.70728 20.4933 11.2086 20.4988 12.71 20.4988ZM16.0945 27.0285V23.2751H9.34746V27.0285H16.0945Z" fill="black"/>
<path d="M31.1849 23.2312C29.0004 23.2312 26.8178 23.2312 24.6333 23.2312C24.4507 23.2312 24.268 23.2385 24.0872 23.2276C23.2653 23.1729 22.6881 22.5914 22.7009 21.8367C22.7119 21.0729 23.289 20.5151 24.131 20.5042C25.3822 20.4878 26.6333 20.4987 27.8845 20.4987C31.0918 20.4987 34.2991 20.4987 37.5064 20.4987C39.0077 20.4987 39.6598 20.9198 39.6434 21.8786C39.6269 22.8101 38.9712 23.2312 37.5319 23.2312C35.4169 23.2312 33.3018 23.2312 31.1849 23.2312Z" fill="black"/>
<path d="M31.205 27.0631C33.5484 27.0631 35.8918 27.054 38.2333 27.0686C39.0681 27.0741 39.6434 27.6519 39.6434 28.4194C39.6434 29.1485 39.0881 29.7209 38.3046 29.7884C38.1238 29.803 37.9411 29.7957 37.7585 29.7957C33.3676 29.7957 28.9786 29.7957 24.5877 29.7957C24.4507 29.7957 24.3137 29.7993 24.1786 29.7957C23.3037 29.761 22.7028 29.2014 22.7009 28.4248C22.7009 27.6355 23.2909 27.0722 24.1749 27.0686C26.5183 27.0576 28.8598 27.0649 31.2032 27.0668L31.205 27.0631Z" fill="black"/>
<path d="M36.4799 56.0638C34.9548 56.0638 33.4315 56.0711 31.9064 56.062C30.8707 56.0565 30.3593 55.5425 30.3538 54.5034C30.3447 52.4563 30.3465 50.4091 30.3538 48.3602C30.3575 47.292 30.878 46.7724 31.9557 46.7706C34.9822 46.7633 38.0068 46.7633 41.0333 46.7706C42.1456 46.7724 42.6516 47.2883 42.6552 48.4094C42.6607 50.4347 42.6625 52.4581 42.6552 54.4834C42.6516 55.5571 42.1401 56.0565 41.0534 56.062C39.5283 56.0693 38.005 56.062 36.4799 56.062V56.0638ZM33.1173 53.2802H39.8643V49.5396H33.1173V53.2802Z" fill="black"/>
<path d="M54.9548 49.5032C52.6808 49.5032 50.405 49.5069 48.131 49.5032C47.1192 49.5014 46.5091 48.9983 46.4909 48.1707C46.4726 47.3285 47.1192 46.7725 48.1457 46.7725C52.6954 46.7689 57.2452 46.7689 61.7931 46.7725C62.7941 46.7725 63.4151 47.2939 63.4333 48.116C63.4516 48.9655 62.8196 49.5014 61.7804 49.5032C59.5064 49.5069 57.2306 49.5032 54.9566 49.5032H54.9548Z" fill="black"/>
<path d="M54.9693 56.0657C52.6954 56.0657 50.4196 56.0676 48.1456 56.0657C47.1008 56.0657 46.4744 55.5334 46.4908 54.6803C46.5072 53.8637 47.1355 53.335 48.1292 53.335C52.7008 53.3314 57.2725 53.3314 61.846 53.335C62.741 53.335 63.3218 53.7889 63.4241 54.5272C63.5136 55.1652 63.1027 55.8233 62.4671 56.0001C62.2314 56.0657 61.9721 56.0639 61.7237 56.0639C59.4716 56.0676 57.2196 56.0657 54.9675 56.0657H54.9693Z" fill="black"/>
</svg>
